<svg xmlns="http://www.w3.org/2000/svg" viewBox="493.64 492.75 400 400" width="1400" height="800" style="display:block; margin:auto; background:#eee;">
  <style>
    .svgcircle { stroke: #000; stroke-width: 2; fill: #f3f3f3; }
    .svgtext { fill: #000; font-family: Verdana, sans-serif; font-size: 20px; text-anchor: middle; dominant-baseline: middle; }
    .svgline { stroke-width: 2; }

    /* Darkmode-Support für System-Einstellungen */
    @media (prefers-color-scheme: dark) {
      svg { background: #222 !important; }
      .svgdarkcircle { stroke: #ccc !important; fill: #333 !important; }
      .svgdarktext { fill: #eee !important; }
      .svgdarkline[stroke="#000"] { stroke: #ccc !important; }
    }
  </style>

  <g class="nodes">
    <circle cx="693.6" cy="692.8" r="35" class="svgcircle svgdarkcircle" />
    <text x="693.6" y="693.8" class="svgtext svgdarktext">1</text>

    <circle cx="745.9" cy="777.3" r="35" class="svgcircle svgdarkcircle" />
    <text x="745.9" y="778.3" class="svgtext svgdarktext">1.2</text>

    <circle cx="571" cy="749.2" r="35" class="svgcircle svgdarkcircle" />
    <text x="571" y="750.2" class="svgtext svgdarktext">1.3</text>

    <circle cx="609.1" cy="584.5" r="35" class="svgcircle svgdarkcircle" />
    <text x="609.1" y="585.5" class="svgtext svgdarktext">1.4</text>

    <circle cx="778.1" cy="608.3" r="35" class="svgcircle svgdarkcircle" />
    <text x="778.1" y="609.3" class="svgtext svgdarktext">1.1</text>

    <circle cx="778.1" cy="172.8" r="35" class="svgcircle svgdarkcircle" />
    <text x="778.1" y="173.8" class="svgtext svgdarktext">0.3</text>

    <circle cx="693.6" cy="172.8" r="35" class="svgcircle svgdarkcircle" />
    <text x="693.6" y="173.8" class="svgtext svgdarktext">0</text>

    <circle cx="609.1" cy="172.8" r="35" class="svgcircle svgdarkcircle" />
    <text x="609.1" y="173.8" class="svgtext svgdarktext">0.1</text>

    <circle cx="693.6" cy="88.3" r="35" class="svgcircle svgdarkcircle" />
    <text x="693.6" y="89.3" class="svgtext svgdarktext">0.2</text>

    <circle cx="173.6" cy="562.8" r="35" class="svgcircle svgdarkcircle" />
    <text x="173.6" y="563.8" class="svgtext svgdarktext">3</text>

    <circle cx="153.1" cy="644.7" r="35" class="svgcircle svgdarkcircle" />
    <text x="153.1" y="645.7" class="svgtext svgdarktext">3.1</text>

    <circle cx="91.7" cy="542.3" r="35" class="svgcircle svgdarkcircle" />
    <text x="91.7" y="543.3" class="svgtext svgdarktext">3.2</text>

    <circle cx="194.1" cy="480.8" r="35" class="svgcircle svgdarkcircle" />
    <text x="194.1" y="481.8" class="svgtext svgdarktext">3.3</text>

    <circle cx="1343.6" cy="692.8" r="35" class="svgcircle svgdarkcircle" />
    <text x="1343.6" y="693.8" class="svgtext svgdarktext">2</text>

    <circle cx="1343.6" cy="608.3" r="35" class="svgcircle svgdarkcircle" />
    <text x="1343.6" y="609.3" class="svgtext svgdarktext">2.1</text>

    <circle cx="1428.1" cy="692.8" r="35" class="svgcircle svgdarkcircle" />
    <text x="1428.1" y="693.8" class="svgtext svgdarktext">2.2</text>

    <circle cx="1343.6" cy="777.3" r="35" class="svgcircle svgdarkcircle" />
    <text x="1343.6" y="778.3" class="svgtext svgdarktext">2.3</text>

    <circle cx="433.6" cy="1212.8" r="35" class="svgcircle svgdarkcircle" />
    <text x="433.6" y="1213.8" class="svgtext svgdarktext">4</text>

    <circle cx="509.2" cy="1250.5" r="35" class="svgcircle svgdarkcircle" />
    <text x="509.2" y="1251.5" class="svgtext svgdarktext">4.1</text>

    <circle cx="395.9" cy="1288.3" r="35" class="svgcircle svgdarkcircle" />
    <text x="395.9" y="1289.3" class="svgtext svgdarktext">4.2</text>

    <circle cx="358.1" cy="1175" r="35" class="svgcircle svgdarkcircle" />
    <text x="358.1" y="1176" class="svgtext svgdarktext">4.3</text>
  </g>

  <g class="edges">
    <line x1="207.6" y1="571.2" x2="659.7" y2="684.3" stroke="#000" class="svgline svgdarkline" />
    <line x1="678" y1="724.1" x2="449.3" y2="1181.5" stroke="#000" class="svgline svgdarkline" />
    <line x1="693.6" y1="207.8" x2="693.6" y2="657.8" stroke="#000" class="svgline svgdarkline" />
    <line x1="1308.6" y1="692.8" x2="728.6" y2="692.8" stroke="#000" class="svgline svgdarkline" />

    <line x1="658.6" y1="172.8" x2="644.1" y2="172.8" stroke="#f11" class="svgline" />
    <line x1="693.6" y1="137.8" x2="693.6" y2="123.3" stroke="#f11" class="svgline" />
    <line x1="728.6" y1="172.8" x2="743.1" y2="172.8" stroke="#f11" class="svgline" />
    <line x1="165.2" y1="596.7" x2="161.6" y2="610.8" stroke="#f11" class="svgline" />
    <line x1="139.7" y1="554.3" x2="125.6" y2="550.8" stroke="#f11" class="svgline" />
    <line x1="182.1" y1="528.8" x2="185.6" y2="514.7" stroke="#f11" class="svgline" />
    <line x1="1343.6" y1="657.8" x2="1343.6" y2="643.3" stroke="#f11" class="svgline" />
    <line x1="1378.6" y1="692.8" x2="1393.1" y2="692.8" stroke="#f11" class="svgline" />
    <line x1="1343.6" y1="727.8" x2="1343.6" y2="742.3" stroke="#f11" class="svgline" />
    <line x1="712" y1="722.5" x2="727.5" y2="747.5" stroke="#f11" class="svgline" />
    <line x1="661.8" y1="707.4" x2="602.8" y2="734.6" stroke="#f11" class="svgline" />
    <line x1="672.1" y1="665.2" x2="630.7" y2="612.1" stroke="#f11" class="svgline" />
    <line x1="718.4" y1="668" x2="753.4" y2="633" stroke="#f11" class="svgline" />
    <line x1="464.9" y1="1228.4" x2="477.9" y2="1234.9" stroke="#f11" class="svgline" />
    <line x1="418" y1="1244.1" x2="411.5" y2="1257" stroke="#f11" class="svgline" />
    <line x1="402.3" y1="1197.1" x2="389.4" y2="1190.6" stroke="#f11" class="svgline" />

    <line x1="633.9" y1="148" x2="668.9" y2="113" stroke="#44f" class="svgline" />
    <line x1="718.4" y1="113" x2="753.4" y2="148" stroke="#44f" class="svgline" />
    <line x1="135.1" y1="614.7" x2="109.7" y2="572.3" stroke="#44f" class="svgline" />
    <line x1="121.7" y1="524.3" x2="164.1" y2="498.8" stroke="#44f" class="svgline" />
    <line x1="1368.4" y1="633" x2="1403.4" y2="668" stroke="#44f" class="svgline" />
    <line x1="1403.4" y1="717.5" x2="1368.4" y2="752.5" stroke="#44f" class="svgline" />
    <line x1="752.4" y1="742.9" x2="771.6" y2="642.6" stroke="#44f" class="svgline" />
    <line x1="711.3" y1="771.7" x2="605.5" y2="754.7" stroke="#44f" class="svgline" />
    <line x1="578.9" y1="715.1" x2="601.2" y2="618.6" stroke="#44f" class="svgline" />
    <line x1="643.8" y1="589.4" x2="743.5" y2="603.4" stroke="#44f" class="svgline" />
    <line x1="476" y1="1261.6" x2="429.1" y2="1277.3" stroke="#44f" class="svgline" />
    <line x1="384.8" y1="1255.1" x2="369.1" y2="1208.2" stroke="#44f" class="svgline" />

    <line x1="778.1" y1="207.8" x2="778.1" y2="573.3" stroke="#0e0" class="svgline" />
    <line x1="228.1" y1="489.3" x2="575.2" y2="576" stroke="#0e0" class="svgline" />
    <line x1="1308.6" y1="777.3" x2="780.9" y2="777.3" stroke="#0e0" class="svgline" />
    <line x1="187.1" y1="653.2" x2="537" y2="740.7" stroke="#0e0" class="svgline" />
    <line x1="609.1" y1="207.8" x2="609.1" y2="549.5" stroke="#0e0" class="svgline" />
    <line x1="1308.6" y1="608.3" x2="813.1" y2="608.3" stroke="#0e0" class="svgline" />
    <line x1="730.2" y1="808.6" x2="524.9" y2="1219.2" stroke="#0e0" class="svgline" />
    <line x1="555.3" y1="780.5" x2="373.7" y2="1143.7" stroke="#0e0" class="svgline" />
  </g>
</svg>